<svg viewBox="0 0 200 100" xmlns="http://www.w3.org/2000/svg">
    <defs>
        <pattern id="star" viewBox="0,0,10,10" width="10%" height="10%" fill="darkgreen">
            <polygon points="0,0 2,5 0,10 5,8 10,10 8,5 10,0 5,2"/>
        </pattern>
        <filter id="noise2">
            <feTurbulence baseFrequency="0.035"/>
            <feDisplacementMap in="SourceGraphic" scale="10"/>
        </filter>
    </defs>
    <rect  x="73" y="40" width="10" height="60" fill="chocolate" stroke="brown" stroke-width="1" stroke-linecap="round" filter="url(#noise2)"/>
    <circle cx="78" cy="30" r="30" fill="green" />
    <circle cx="78" cy="30" r="30" fill="url(#star)" />
    <g fill="green">
        <path d="M 50 20 C 44 28 44 32 50 40 Z"/>
        <path d="M 50 20 C 44 28 44 32 50 40 Z" transform="rotate(180, 78, 30)"/>
    </g>
    <g fill="url(#star)">
        <path d="M 50 20 C 44 28 44 32 50 40 Z"/>
        <path d="M 50 20 C 44 28 44 32 50 40 Z" transform="rotate(180, 78, 30)"/>
    </g>
    <text filter="url(#noise2)" x="50" y="90" font-size="20" text-anchor="middle"
        font-weight="bold" fill="none" stroke="tomato"
        stroke-dasharray="300">Parc</text>
</svg>